<?xml version="1.0" standalone="no"?>
<!DOCTYPE svg PUBLIC "-//W3C//DTD SVG 20010904//EN"
 "http://www.w3.org/TR/2001/REC-SVG-20010904/DTD/svg10.dtd">
<svg version="1.0" xmlns="http://www.w3.org/2000/svg"
 width="512.000000pt" height="512.000000pt" viewBox="0 0 512.000000 512.000000"
 preserveAspectRatio="xMidYMid meet">

<g transform="translate(0.000000,512.000000) scale(0.100000,-0.100000)"
fill="#000000" stroke="none">
<path d="M2395 4994 c-497 -37 -943 -203 -1330 -493 -128 -97 -324 -287 -428
-416 -284 -352 -465 -779 -528 -1245 -21 -153 -16 -479 10 -645 132 -871 695
-1588 1508 -1920 433 -176 945 -221 1413 -125 372 77 720 240 1025 478 90 71
326 307 397 397 365 465 544 1013 525 1610 -37 1178 -918 2163 -2086 2335
-127 18 -404 32 -506 24z m289 -890 c22 -57 27 -254 21 -839 -4 -346 -6 -731
-6 -855 0 -420 33 -904 73 -1095 12 -55 21 -131 22 -170 0 -111 -34 -155 -133
-171 -53 -8 -92 8 -117 49 -27 46 -25 216 5 352 33 152 44 352 37 685 -6 304
-19 501 -35 542 -5 13 -30 47 -55 76 l-46 54 0 511 c0 301 4 539 10 577 22
139 69 237 135 280 37 24 81 26 89 4z m931 -436 c90 -47 142 -120 170 -240 18
-76 20 -347 4 -416 -17 -70 -96 -232 -177 -362 l-72 -114 0 -772 0 -771 -25
-11 c-35 -16 -108 -15 -149 2 l-34 14 0 761 0 760 -25 54 c-14 30 -49 90 -80
133 -115 166 -147 270 -147 482 0 210 38 338 126 426 67 68 126 87 254 83 90
-3 112 -7 155 -29z m-2145 -422 c51 -417 59 -454 96 -439 23 8 32 60 80 458
25 209 48 387 51 395 3 8 30 -171 58 -399 48 -372 55 -415 74 -435 l22 -21 25
28 c13 15 24 34 24 41 0 22 89 738 97 776 10 56 102 -695 102 -845 l1 -120
-85 -125 c-46 -69 -99 -154 -117 -190 l-33 -65 -5 -631 c-5 -614 -6 -633 -25
-654 -65 -72 -198 -65 -245 12 -19 32 -20 49 -20 638 0 363 -4 619 -10 640
-12 43 -49 104 -157 254 l-83 115 0 125 c0 85 14 243 45 500 25 207 46 380 46
384 3 14 10 -36 59 -442z"/>
</g>
</svg>
